<?xml version="1.0" encoding="UTF-8"?> <svg xmlns="http://www.w3.org/2000/svg" width="109" height="24" viewBox="0 0 109 24" fill="none"><path d="M25.479 0.489031H25.7165C25.9408 0.489031 26.1519 0.515464 26.3498 0.56833C26.5478 0.621197 26.7193 0.713714 26.8776 0.819447C27.0228 0.92518 27.1415 1.07056 27.2339 1.22916C27.3262 1.38776 27.3658 1.57279 27.3658 1.78426V8.1811C27.3658 8.24718 27.3658 8.419 27.3658 8.48508C27.1811 11.5117 25.6241 12.4501 23.7241 12.3972C21.8373 12.4501 20.2672 11.5117 20.0824 8.48508C20.0824 8.419 20.0824 8.24718 20.0824 8.1811V1.78426C20.0824 1.57279 20.122 1.38776 20.2144 1.22916C20.3068 1.07056 20.4255 0.92518 20.5706 0.819447C20.7158 0.713714 20.9005 0.621197 21.0984 0.56833C21.2963 0.515464 21.5075 0.489031 21.7318 0.489031H21.9693V0.237915H14.8574V0.489031H15.0949C15.2928 0.489031 15.4908 0.515464 15.6887 0.56833C15.8866 0.621197 16.0581 0.700497 16.2165 0.819447C16.3748 0.938396 16.4935 1.097 16.5991 1.28203C16.6915 1.48028 16.7442 1.71818 16.7442 1.99573V8.419C16.7442 8.90802 16.7838 9.35738 16.8762 9.75388C16.9685 10.1504 17.0873 10.5072 17.2456 10.8376C17.404 11.1548 17.6019 11.4456 17.8262 11.6835C18.0505 11.9346 19.1061 12.6748 19.3963 12.8069C19.6866 12.9391 19.9901 13.0448 20.3068 13.1241C20.6102 13.2034 20.9269 13.2563 21.2436 13.3091C22.0088 13.4281 22.9325 13.4545 23.6977 13.4413H23.7637C24.529 13.4413 25.4526 13.4281 26.2179 13.3091C26.5346 13.2563 26.838 13.2034 27.1547 13.1241C27.4582 13.0448 27.7617 12.9391 28.0651 12.8069C28.3686 12.6748 29.4242 11.9346 29.6353 11.6835C29.8596 11.4324 30.0443 11.1548 30.2158 10.8376C30.3742 10.5204 30.5061 10.1636 30.5853 9.75388C30.6776 9.35738 30.7172 8.90802 30.7172 8.419V1.99573C30.7172 1.70496 30.77 1.46706 30.8624 1.28203C30.9547 1.097 31.0867 0.938396 31.245 0.819447C31.4033 0.700497 31.5749 0.621197 31.7728 0.56833C31.9707 0.515464 32.1686 0.489031 32.3665 0.489031H32.604V0.237915H25.5054V0.489031H25.479Z" fill="#14428A"></path><path d="M99.5922 12.5955C99.4338 12.4898 99.2887 12.3708 99.1435 12.2254C98.9852 12.0801 98.8401 11.9347 98.6949 11.7629C98.5498 11.591 98.4047 11.4192 98.2727 11.2342C98.1408 11.0492 97.9956 10.8773 97.8769 10.6923C97.7449 10.5073 97.6262 10.3355 97.5206 10.1636C97.4151 9.99183 97.3095 9.83323 97.2171 9.67463C97.0324 9.39708 96.8609 9.11954 96.663 8.84199C96.4783 8.56444 96.2671 8.28689 96.056 8.02255C95.8449 7.75822 95.6074 7.50711 95.3567 7.26921C95.106 7.03131 94.8157 6.80663 94.5123 6.60838C95.04 6.44978 95.4887 6.27796 95.8449 6.0665C96.2012 5.85503 96.4914 5.61713 96.7158 5.36602C96.9401 5.10169 97.0984 4.82413 97.2171 4.53337C97.3227 4.22939 97.3755 3.92541 97.3887 3.60821C97.4019 3.33066 97.3887 3.06633 97.3095 2.82843C97.2435 2.59053 97.138 2.35263 97.006 2.15438C96.8741 1.94291 96.7026 1.75788 96.5178 1.58607C96.3199 1.41425 96.1088 1.25565 95.8845 1.11027C95.6602 0.964886 95.4095 0.845936 95.1456 0.740203C94.8817 0.63447 94.6178 0.541953 94.3539 0.47587C94.09 0.409787 93.813 0.356922 93.5491 0.317272C93.2852 0.277622 93.0081 0.264404 92.7574 0.264404H84.4185V0.515521H84.7615C84.9462 0.515521 85.131 0.541953 85.3157 0.59482C85.5004 0.647686 85.6587 0.740203 85.8039 0.845936C85.949 0.964885 86.0678 1.09705 86.1601 1.26887C86.2525 1.44068 86.2921 1.63893 86.2921 1.86362V11.6439C86.2921 11.895 86.2393 12.1065 86.1469 12.2651C86.0546 12.4369 85.9358 12.5691 85.7775 12.6748C85.6192 12.7673 85.4476 12.8466 85.2629 12.8863C85.0782 12.9259 84.8803 12.9524 84.6956 12.9524H84.4053V13.2431H91.5171V12.992H91.1609C90.9497 12.992 90.765 12.9524 90.5803 12.8863C90.3956 12.8202 90.2504 12.7277 90.1185 12.6087C89.9866 12.4898 89.881 12.3576 89.815 12.2122C89.7359 12.0668 89.6963 11.9082 89.6963 11.7364V7.16348H90.4615C90.765 7.16348 91.0553 7.22956 91.3324 7.34851C91.6095 7.46746 91.8602 7.63928 92.0977 7.85074C92.3352 8.06221 92.5595 8.3001 92.7838 8.59087C92.9949 8.86842 93.206 9.1724 93.4039 9.4896C93.6018 9.8068 93.7998 10.1372 93.9845 10.4808C94.1692 10.8245 94.3539 11.1549 94.5387 11.4853C94.7234 11.8157 94.9081 12.1329 95.0928 12.4369C95.2775 12.7409 95.4623 13.0184 95.6602 13.2431H100.503V12.9391C100.357 12.9391 100.212 12.9127 100.054 12.8466C99.8956 12.7938 99.7505 12.7012 99.5922 12.5955ZM90.6727 6.41013H89.6171V0.938452H90.7386C91.0289 0.938452 91.306 0.95167 91.5435 1.00454C91.7942 1.04419 92.0185 1.11027 92.2164 1.18957C92.4275 1.26887 92.5991 1.36138 92.7706 1.46712C92.9289 1.57285 93.0741 1.6918 93.206 1.82396C93.3248 1.95613 93.4435 2.0883 93.5227 2.23368C93.615 2.37906 93.681 2.53766 93.747 2.68304C93.7998 2.84164 93.8393 3.00024 93.8657 3.15884C93.8921 3.31744 93.9053 3.47604 93.9053 3.64786C93.9053 3.80646 93.9053 3.97827 93.8657 4.13687C93.8393 4.29547 93.7998 4.46729 93.7602 4.62589C93.7074 4.78449 93.6414 4.94308 93.5491 5.08847C93.4567 5.24707 93.3512 5.37923 93.2324 5.5114C93.1137 5.64357 92.9685 5.76252 92.797 5.88146C92.6386 5.9872 92.4407 6.07971 92.2428 6.15901C92.0317 6.23831 91.7942 6.3044 91.5435 6.34405C91.2796 6.3837 90.9893 6.41013 90.6727 6.41013Z" fill="#14428A"></path><path d="M63.5313 11.3927C63.1487 11.6174 62.7132 11.7892 62.2514 11.9214C61.7896 12.0536 61.2486 12.1196 60.6417 12.1196C60.2854 12.1196 59.9292 12.0932 59.5861 12.0403C59.2431 11.9875 58.9132 11.9082 58.5965 11.7892C58.2799 11.6703 57.9764 11.5381 57.6861 11.3663C57.3958 11.1945 57.1188 10.9962 56.8813 10.7583C56.6306 10.5204 56.4063 10.2693 56.2083 9.96534C56.0104 9.67457 55.8389 9.34416 55.7069 8.98731C55.575 8.63046 55.4694 8.23396 55.3903 7.81103C55.3243 7.3881 55.2847 6.92552 55.2979 6.4365C55.3111 5.61707 55.4167 4.87694 55.6146 4.18968C55.7993 3.50242 56.0764 2.90767 56.4722 2.40544C56.8549 1.90321 57.3431 1.50671 57.9236 1.22916C58.5042 0.938391 59.2035 0.79301 60.0216 0.779794C60.5889 0.779794 61.1431 0.845877 61.6841 0.991259C62.225 1.13664 62.7264 1.37454 63.175 1.69174C63.6237 2.00894 64.0195 2.41865 64.3494 2.92088C64.6792 3.42311 64.9167 4.01786 65.0619 4.70513H65.4709V0.0925293H65.0619C65.0619 0.171829 65.0355 0.251129 64.9695 0.330429C64.9035 0.409728 64.8376 0.475811 64.7584 0.541894C64.6792 0.607977 64.6 0.660842 64.5209 0.700492C64.4417 0.740142 64.3889 0.75336 64.3625 0.75336C63.9535 0.687277 63.5577 0.621194 63.175 0.541894C62.7924 0.462595 62.4098 0.396512 62.0403 0.330429C61.6709 0.264346 61.3014 0.211478 60.9188 0.158611C60.5493 0.118962 60.1667 0.0925293 59.7841 0.0925293C59.1507 0.0925293 58.557 0.145394 57.9896 0.23791C57.4222 0.330427 56.8945 0.462594 56.4063 0.63441C55.9181 0.806226 55.4562 1.01769 55.034 1.26881C54.6118 1.51992 54.2292 1.79747 53.8861 2.10145C53.543 2.40544 53.2396 2.73585 52.9625 3.0927C52.6986 3.44955 52.4743 3.81961 52.2764 4.21611C52.0916 4.61261 51.9465 5.02233 51.8541 5.45847C51.7486 5.8814 51.6958 6.31756 51.6826 6.76692C51.6826 7.16342 51.6826 7.5467 51.7618 7.9432C51.8278 8.3397 51.9333 8.73619 52.0785 9.10626C52.2236 9.48954 52.4215 9.8596 52.6458 10.2165C52.8833 10.5733 53.1472 10.9169 53.4771 11.2209C53.7937 11.5381 54.15 11.8289 54.559 12.08C54.9681 12.3443 55.4167 12.569 55.9049 12.754C56.3931 12.9391 56.9472 13.0845 57.5278 13.2034C58.1215 13.3091 58.7549 13.362 59.4278 13.3752C60.0084 13.3752 60.5889 13.3356 61.1827 13.2298C61.7764 13.1241 62.3438 12.9655 62.898 12.754C63.4521 12.5426 63.9667 12.2782 64.4417 11.961C64.9167 11.6439 65.3257 11.287 65.6688 10.8641V9.71422C65.3257 10.0182 64.9959 10.3222 64.6528 10.613C64.323 10.9037 63.9535 11.1548 63.5709 11.3795L63.5313 11.3927Z" fill="#14428A"></path><path d="M12.7063 2.33934C12.6139 2.12787 12.5084 1.92962 12.3764 1.73138C12.2445 1.53313 12.0993 1.34809 11.9146 1.17628C11.7299 1.00446 11.532 0.845862 11.3208 0.700479C11.0965 0.555096 10.859 0.436148 10.5951 0.330415C10.3313 0.224682 10.041 0.145382 9.72431 0.0925159C9.40764 0.0396494 9.07778 0 8.72153 0H0.0527344V0.251114H0.237458C0.435375 0.251114 0.633293 0.277549 0.831211 0.330415C1.02913 0.383282 1.21385 0.462579 1.37219 0.568312C1.53052 0.674045 1.66247 0.81943 1.76802 0.991246C1.87358 1.16306 1.92636 1.38774 1.92636 1.63886V11.7496C1.92636 11.9346 1.88677 12.1064 1.79441 12.265C1.71524 12.4236 1.59649 12.5426 1.45135 12.6483C1.30621 12.754 1.13468 12.8333 0.936767 12.8994C0.738849 12.9523 0.527737 12.9787 0.30343 12.9787H0.0527344V13.2298H7.42847V12.9787H7.16458C6.95346 12.9787 6.76874 12.9655 6.61041 12.9258C6.45207 12.8994 6.30693 12.8465 6.18818 12.7937C6.06943 12.7408 5.96388 12.6615 5.87151 12.5954C5.77915 12.5161 5.71318 12.4368 5.64721 12.3575C5.58124 12.265 5.54165 12.1857 5.50207 12.0932C5.46248 12.0007 5.4361 11.9214 5.4229 11.8289C5.40971 11.7496 5.39651 11.6703 5.38332 11.591C5.38332 11.5117 5.38332 11.4588 5.38332 11.4059V7.21627C5.69999 7.2427 6.01665 7.28235 6.33332 7.30879C6.64999 7.34844 6.96666 7.36165 7.29652 7.36165C7.79791 7.36165 8.27292 7.33522 8.70833 7.28235C9.14375 7.21627 9.53959 7.13697 9.89584 7.03123C10.2521 6.9255 10.582 6.80656 10.8722 6.64796C11.1625 6.50257 11.4264 6.34397 11.6507 6.15894C11.875 5.98712 12.0729 5.78888 12.2445 5.59063C12.416 5.39238 12.5479 5.18091 12.6535 4.95623C12.7591 4.74476 12.8382 4.52008 12.891 4.2954C12.9438 4.07072 12.9702 3.84603 12.9702 3.62135C12.9702 3.39667 12.9438 3.1852 12.9042 2.96052C12.8646 2.74906 12.7986 2.52437 12.7063 2.31291V2.33934ZM7.85069 6.35719C7.65277 6.44971 7.45486 6.51579 7.21735 6.55544C6.99305 6.59509 6.75555 6.62152 6.50485 6.6083C6.32013 6.6083 6.13541 6.59509 5.93749 6.58187C5.73957 6.58187 5.55485 6.55544 5.37012 6.50257V0.832645C5.54165 0.819429 5.71318 0.792997 5.87151 0.766563C6.04304 0.74013 6.21457 0.726913 6.37291 0.726913C6.6368 0.726913 6.90069 0.726914 7.12499 0.77978C7.36249 0.81943 7.57361 0.885512 7.77152 0.964812C7.96944 1.04411 8.15417 1.13663 8.32569 1.24236C8.49722 1.34809 8.64236 1.48026 8.77431 1.59921C8.90625 1.73137 9.025 1.87676 9.13056 2.02214C9.23612 2.18074 9.31528 2.32612 9.38126 2.49794C9.44723 2.65654 9.50001 2.82836 9.52639 2.98695C9.56598 3.14555 9.57917 3.31737 9.57917 3.47597C9.57917 3.64778 9.56598 3.83282 9.52639 4.01785C9.50001 4.20288 9.44723 4.38791 9.38126 4.57295C9.31528 4.75798 9.23612 4.92979 9.13056 5.10161C9.025 5.27343 8.91945 5.44524 8.7875 5.60384C8.65556 5.76244 8.51042 5.89461 8.33889 6.02677C8.18055 6.15894 7.99583 6.26467 7.81111 6.35719H7.85069Z" fill="#14428A"></path><path d="M49.8094 12.5955C49.6511 12.4898 49.506 12.3708 49.3608 12.2254C49.2157 12.0801 49.0706 11.9347 48.9122 11.7629C48.7671 11.591 48.6219 11.4192 48.49 11.2342C48.358 11.0492 48.2261 10.8773 48.0942 10.6923C47.9622 10.5073 47.8435 10.3355 47.7379 10.1636C47.6323 9.99183 47.5268 9.83323 47.4212 9.67463C47.2365 9.39708 47.065 9.11954 46.8671 8.84199C46.6823 8.56444 46.4844 8.28689 46.2601 8.02255C46.049 7.75822 45.8115 7.50711 45.5608 7.26921C45.3101 7.03131 45.0198 6.80663 44.7164 6.60838C45.2441 6.44978 45.6928 6.27796 46.049 6.0665C46.4053 5.85503 46.6955 5.61713 46.9198 5.36602C47.1442 5.10169 47.3025 4.82413 47.408 4.53337C47.5136 4.22939 47.5664 3.92541 47.5928 3.60821C47.606 3.33066 47.5928 3.06633 47.5136 2.82843C47.4476 2.59053 47.3421 2.35263 47.2101 2.15438C47.065 1.94291 46.9067 1.75788 46.7219 1.58607C46.5372 1.41425 46.3261 1.25565 46.0886 1.11027C45.8643 0.964886 45.6136 0.845936 45.3629 0.740203C45.099 0.63447 44.8351 0.541953 44.558 0.47587C44.2941 0.409787 44.0171 0.356922 43.7532 0.317272C43.4893 0.277622 43.2122 0.264404 42.9615 0.264404H34.6226V0.515521H34.9788C35.1635 0.515521 35.3483 0.541953 35.533 0.59482C35.7177 0.647686 35.876 0.740203 36.0212 0.845936C36.1663 0.964885 36.2851 1.09705 36.3774 1.26887C36.4698 1.44068 36.5094 1.63893 36.5094 1.86362V11.6439C36.5094 11.895 36.4698 12.1065 36.3642 12.2651C36.2719 12.4369 36.1531 12.5691 35.9948 12.6748C35.8365 12.7673 35.6649 12.8466 35.4802 12.8863C35.2955 12.9259 35.0976 12.9524 34.9128 12.9524H34.6226V13.2431H41.7344V12.992H41.3782C41.167 12.992 40.9823 12.9524 40.8108 12.8863C40.6393 12.8202 40.4809 12.7277 40.349 12.6087C40.217 12.4898 40.1115 12.3576 40.0323 12.2122C39.9531 12.0668 39.9136 11.9082 39.9136 11.7364V7.16348H40.6788C40.9823 7.16348 41.2726 7.22956 41.5497 7.34851C41.8136 7.46746 42.0775 7.63928 42.315 7.85074C42.5525 8.06221 42.79 8.3001 43.0011 8.59087C43.2122 8.86842 43.4233 9.1724 43.6212 9.4896C43.8191 9.8068 44.0171 10.1372 44.2018 10.4808C44.3865 10.8245 44.5712 11.1549 44.7559 11.4853C44.9407 11.8157 45.1254 12.1329 45.3101 12.4369C45.4948 12.7409 45.6796 13.0184 45.8775 13.2431H50.7199V12.9391C50.5747 12.9391 50.4296 12.9127 50.2712 12.8466C50.1261 12.7938 49.9678 12.7012 49.8094 12.5955ZM40.9031 6.41013H39.8476V0.938452H40.9691C41.2594 0.938452 41.5365 0.95167 41.774 1.00454C42.0247 1.04419 42.249 1.11027 42.4469 1.18957C42.658 1.26887 42.8295 1.36138 43.0011 1.46712C43.1594 1.57285 43.3045 1.6918 43.4365 1.82396C43.5552 1.95613 43.674 2.0883 43.7532 2.23368C43.8455 2.37906 43.9115 2.53766 43.9643 2.68304C44.0171 2.84164 44.0698 3.00024 44.083 3.15884C44.1094 3.31744 44.1226 3.47604 44.1226 3.64786C44.1226 3.80646 44.1094 3.97827 44.083 4.13687C44.0566 4.29547 44.0171 4.46729 43.9643 4.62589C43.9115 4.78449 43.8455 4.94308 43.7532 5.08847C43.674 5.24707 43.5684 5.37923 43.4365 5.5114C43.3177 5.64357 43.1726 5.76252 43.0011 5.88146C42.8427 5.9872 42.658 6.07971 42.4469 6.15901C42.2358 6.23831 41.9983 6.3044 41.7476 6.34405C41.4837 6.3837 41.1934 6.41013 40.8768 6.41013H40.9031Z" fill="#14428A"></path><path d="M82.2812 12.6483C82.1229 12.569 81.9778 12.4765 81.859 12.3707C81.7271 12.265 81.6215 12.146 81.5159 12.0271C81.4104 11.9081 81.318 11.776 81.2389 11.6438C81.1597 11.5116 81.0805 11.3795 81.0146 11.2341C80.9486 11.0887 80.8826 10.9565 80.8166 10.8112C80.7507 10.6658 80.6979 10.5336 80.6319 10.3882L76.0534 0.105713H74.061L68.77 10.7451C68.6645 10.983 68.5457 11.2341 68.4138 11.472C68.2686 11.7231 68.0971 11.9478 67.9124 12.1593C67.7145 12.3707 67.4902 12.5558 67.2395 12.7011C66.9888 12.8465 66.6985 12.9523 66.3818 13.0051V13.2562H70.9603V13.0051C70.5777 12.9523 70.2874 12.873 70.0763 12.754C69.8652 12.6351 69.7069 12.5029 69.6277 12.3443C69.5353 12.1857 69.4957 12.0271 69.5089 11.8553C69.5089 11.6835 69.5485 11.5116 69.6145 11.353L71.0791 8.39253H76.2513L77.5576 11.2473C77.584 11.3266 77.6236 11.4191 77.6631 11.4984C77.7027 11.5909 77.7291 11.6835 77.7423 11.776C77.7687 11.8685 77.7819 11.961 77.7819 12.0535C77.7819 12.146 77.7819 12.2386 77.7555 12.3179C77.7291 12.4104 77.6895 12.4897 77.6236 12.569C77.5576 12.6483 77.4652 12.7144 77.3597 12.7672C77.2409 12.8333 77.109 12.873 76.9374 12.9258C76.7659 12.9655 76.568 12.9919 76.3305 13.0051V13.2562H83.4951V13.0051C83.2576 12.9787 83.0465 12.939 82.8486 12.873C82.6639 12.8201 82.4791 12.7408 82.3208 12.6615L82.2812 12.6483ZM71.4881 7.50701L73.784 2.85477L75.8159 7.52023H71.5013L71.4881 7.50701Z" fill="#14428A"></path><path d="M107.179 1.46706C107.232 1.29524 107.311 1.12343 107.443 0.978047C107.575 0.832664 107.747 0.713714 107.958 0.621198C108.182 0.528682 108.459 0.489031 108.815 0.489031H108.987V0.237915H101.875V0.489031H102.047C102.244 0.489031 102.442 0.515464 102.64 0.56833C102.838 0.621197 103.023 0.700497 103.194 0.819447C103.353 0.938396 103.498 1.08378 103.59 1.25559C103.696 1.42741 103.749 1.63888 103.749 1.90321V11.4853C103.749 11.6835 103.722 11.8818 103.669 12.0536C103.617 12.2386 103.524 12.3972 103.392 12.5294C103.26 12.6747 103.089 12.7805 102.865 12.8598C102.653 12.9391 102.376 12.9787 102.06 12.9787H101.888V13.2298H109V12.9787H108.763C108.499 12.9787 108.261 12.9391 108.063 12.873C107.865 12.7937 107.681 12.7012 107.549 12.569C107.417 12.4501 107.298 12.3047 107.232 12.1461C107.166 11.9875 107.126 11.8289 107.126 11.6703V1.98251C107.126 1.81069 107.153 1.63888 107.192 1.45384L107.179 1.46706Z" fill="#14428A"></path><path d="M6.0167 23.0101L4.52572 19.3094H3.80002L2.26946 22.9969L0.804865 19.3094H0L1.82084 23.8295H2.6521L4.14308 20.2214L5.62086 23.8295H6.43892L8.25976 19.3094H7.52087L6.0167 23.0101Z" fill="#14428A"></path><path d="M12.9308 19.3094H12.1523V23.8295H12.9308V19.3094Z" fill="#14428A"></path><path d="M21.283 22.6797L18.0108 19.3094H17.3774V23.8295H18.1559V20.4593L21.4282 23.8295H22.0615V19.3094H21.283V22.6797Z" fill="#14428A"></path><path d="M27.2863 21.8074H29.2523V21.2655H27.2863V19.8778H30.3474V19.3094H26.5078V23.8295H30.453V23.2744H27.2863V21.8074Z" fill="#14428A"></path><path d="M49.0041 21.8074H50.9832V21.2655H49.0041V19.8778H52.0652V19.3094H48.2256V23.8295H52.1839V23.2744H49.0041V21.8074Z" fill="#14428A"></path><path d="M37.8026 22.27C38.1456 22.151 38.3963 21.966 38.5811 21.7281C38.7658 21.4902 38.8581 21.2126 38.8581 20.8822C38.8581 20.5518 38.7658 20.2743 38.5811 20.0364C38.3963 19.7985 38.1456 19.6134 37.8026 19.4945C37.4727 19.3755 37.0637 19.3094 36.5755 19.3094H34.4512V23.8295H35.2296V22.455H36.5755C36.6942 22.455 36.7734 22.4154 36.8922 22.4021L38.0929 23.8295H38.9373L37.631 22.2964C37.631 22.2964 37.7498 22.2964 37.8026 22.27ZM36.5623 21.9131H35.2428V19.8778H36.5623C37.0637 19.8778 37.4331 19.9703 37.697 20.1421C37.9609 20.3139 38.0797 20.565 38.0797 20.8954C38.0797 21.2259 37.9477 21.4638 37.697 21.6488C37.4463 21.8338 37.0637 21.9131 36.5623 21.9131Z" fill="#14428A"></path><path d="M43.7795 19.3094H43.001V23.8295H43.7795V19.3094Z" fill="#14428A"></path><path d="M59.2832 21.662C59.0853 21.5695 58.8742 21.5034 58.6367 21.4374C58.3992 21.3845 58.1617 21.3316 57.9374 21.2788C57.6998 21.2391 57.4887 21.1862 57.2908 21.1202C57.0929 21.0673 56.9346 20.988 56.8158 20.8955C56.6971 20.803 56.6311 20.6708 56.6311 20.5122C56.6311 20.38 56.6707 20.2611 56.763 20.1554C56.8554 20.0496 57.0005 19.9571 57.1985 19.891C57.3964 19.8249 57.6471 19.7985 57.9505 19.7985C58.188 19.7985 58.4519 19.8249 58.7026 19.891C58.9665 19.9439 59.204 20.0496 59.4415 20.1686L59.7054 19.6531C59.4811 19.521 59.204 19.4284 58.9005 19.3491C58.5839 19.2831 58.2804 19.2434 57.9637 19.2434C57.4887 19.2434 57.0929 19.2963 56.7894 19.4152C56.486 19.5342 56.2485 19.6928 56.1033 19.891C55.9582 20.0893 55.879 20.3007 55.879 20.5386C55.879 20.7765 55.9318 20.9748 56.0637 21.1334C56.1825 21.292 56.3408 21.4109 56.5387 21.5034C56.7366 21.596 56.9478 21.6621 57.1853 21.7281C57.4228 21.781 57.6603 21.8339 57.8846 21.8867C58.1089 21.9396 58.3332 21.9792 58.5311 22.0453C58.729 22.1114 58.8874 22.1775 59.0061 22.27C59.1249 22.3625 59.1908 22.4947 59.1908 22.6401C59.1908 22.7722 59.1381 22.8912 59.0457 22.9969C58.9533 23.1027 58.8082 23.182 58.6103 23.248C58.4124 23.3141 58.1617 23.3406 57.845 23.3406C57.5019 23.3406 57.1589 23.2877 56.8422 23.1952C56.5255 23.1027 56.2616 22.9705 56.0505 22.8251L55.7603 23.3273C55.9846 23.4992 56.2748 23.6313 56.6575 23.7371C57.0401 23.8428 57.436 23.8957 57.845 23.8957C58.32 23.8957 58.7158 23.8428 59.0325 23.7238C59.3492 23.6049 59.5735 23.4463 59.7318 23.248C59.8769 23.0498 59.9561 22.8383 59.9561 22.6136C59.9561 22.389 59.8901 22.1775 59.7714 22.0321C59.6526 21.8867 59.4943 21.7546 59.2964 21.6753L59.2832 21.662Z" fill="#14428A"></path><path d="M69.7067 20.3271C69.9047 20.1685 70.129 20.0496 70.3928 19.9703C70.6567 19.891 70.947 19.8381 71.2637 19.8381C71.5804 19.8381 71.8574 19.8778 72.1081 19.9571C72.372 20.0364 72.6095 20.1685 72.8338 20.3536L73.3088 19.9571C73.0581 19.7192 72.7547 19.5474 72.3984 19.4284C72.0422 19.3095 71.6463 19.2566 71.2109 19.2566C70.7755 19.2566 70.3929 19.3095 70.0498 19.4284C69.6935 19.5474 69.3901 19.706 69.1262 19.9174C68.8623 20.1289 68.6644 20.3668 68.5192 20.6576C68.3741 20.9483 68.2949 21.2391 68.2949 21.5827C68.2949 21.9264 68.3741 22.2303 68.5192 22.5079C68.6644 22.7854 68.8623 23.0365 69.1262 23.2348C69.3901 23.4463 69.6935 23.6049 70.0498 23.7238C70.406 23.8428 70.7887 23.8956 71.2109 23.8956C71.5936 23.8956 71.963 23.8428 72.3324 23.7502C72.6887 23.6577 73.0054 23.5123 73.2825 23.3141V21.5431H72.5304V22.9705C72.3852 23.0498 72.2533 23.1555 72.0949 23.1951C71.8311 23.2744 71.554 23.3141 71.2637 23.3141C70.947 23.3141 70.6699 23.2744 70.406 23.1819C70.1422 23.0894 69.9178 22.9705 69.7199 22.8119C69.522 22.6533 69.3769 22.4682 69.2713 22.2568C69.1658 22.0453 69.113 21.8074 69.113 21.5695C69.113 21.3316 69.1658 21.0937 69.2713 20.869C69.3769 20.6576 69.522 20.4725 69.7199 20.3139L69.7067 20.3271Z" fill="#14428A"></path><path d="M80.909 22.27C81.2521 22.151 81.5028 21.966 81.6875 21.7281C81.8722 21.4902 81.9646 21.2126 81.9646 20.8822C81.9646 20.5518 81.8722 20.2743 81.6875 20.0364C81.5028 19.7985 81.2521 19.6134 80.909 19.4945C80.5792 19.3755 80.1701 19.3094 79.6819 19.3094H77.5576V23.8295H78.3361V22.455H79.6819C79.8007 22.455 79.8799 22.4154 79.9986 22.4021L81.1993 23.8295H82.0438L80.7375 22.2964C80.7375 22.2964 80.8562 22.2964 80.909 22.27ZM79.6687 21.9131H78.3493V19.8778H79.6687C80.1701 19.8778 80.5396 19.9703 80.8035 20.1421C81.0674 20.3139 81.1861 20.565 81.1861 20.8954C81.1861 21.2259 81.0542 21.4638 80.8035 21.6488C80.5528 21.8338 80.1701 21.9131 79.6687 21.9131Z" fill="#14428A"></path><path d="M90.7253 19.9174C90.4614 19.706 90.1579 19.5474 89.8017 19.4284C89.4454 19.3095 89.0628 19.2566 88.6538 19.2566C88.2447 19.2566 87.8489 19.3095 87.4927 19.4284C87.1364 19.5474 86.8329 19.706 86.569 19.9174C86.3052 20.1289 86.1072 20.3668 85.9621 20.6443C85.817 20.9219 85.7378 21.2259 85.7378 21.5695C85.7378 21.9131 85.817 22.2039 85.9621 22.4814C86.1072 22.759 86.3052 23.0101 86.569 23.2216C86.8329 23.433 87.1364 23.5916 87.4927 23.7106C87.8489 23.8295 88.2316 23.8824 88.6406 23.8824C89.0496 23.8824 89.4455 23.8295 89.7885 23.7106C90.1448 23.5916 90.4482 23.433 90.7121 23.2216C90.976 23.0101 91.1739 22.7722 91.3191 22.4947C91.4642 22.2171 91.5302 21.8999 91.5302 21.5695C91.5302 21.2391 91.4642 20.9351 91.3191 20.6443C91.1739 20.3668 90.976 20.1157 90.7121 19.9042L90.7253 19.9174ZM90.6066 22.27C90.501 22.4814 90.3559 22.6665 90.158 22.8251C89.9732 22.9837 89.7489 23.1026 89.485 23.1951C89.2211 23.2877 88.9441 23.3273 88.6406 23.3273C88.3371 23.3273 88.06 23.2877 87.8093 23.1951C87.5586 23.1026 87.3343 22.9837 87.1364 22.8251C86.9385 22.6665 86.7933 22.4814 86.6878 22.27C86.5822 22.0585 86.5295 21.8338 86.5295 21.5827C86.5295 21.3316 86.5822 21.1069 86.6878 20.8955C86.7933 20.684 86.9385 20.499 87.1364 20.3404C87.3211 20.1818 87.5586 20.0628 87.8093 19.9703C88.06 19.8778 88.3503 19.8381 88.6406 19.8381C88.9309 19.8381 89.2343 19.8778 89.485 19.9703C89.7357 20.0628 89.96 20.1818 90.158 20.3404C90.3427 20.499 90.4878 20.684 90.6066 20.8955C90.7121 21.1069 90.7649 21.3316 90.7649 21.5827C90.7649 21.8338 90.7121 22.0585 90.6066 22.27Z" fill="#14428A"></path><path d="M99.4338 21.8603C99.4338 22.3625 99.3019 22.7326 99.038 22.9705C98.7741 23.2083 98.3915 23.3141 97.9033 23.3141C97.4151 23.3141 97.0324 23.1951 96.7685 22.9705C96.5047 22.7326 96.3727 22.3757 96.3727 21.8603V19.3094H95.5942V21.8867C95.5942 22.5475 95.7922 23.0365 96.2012 23.3802C96.6102 23.7238 97.1776 23.8956 97.8901 23.8956C98.6026 23.8956 99.17 23.7238 99.579 23.3802C99.988 23.0365 100.186 22.5475 100.186 21.8867V19.3094H99.4338V21.8603Z" fill="#14428A"></path><path d="M108.723 20.0364C108.538 19.7985 108.287 19.6134 107.944 19.4945C107.614 19.3755 107.205 19.3094 106.717 19.3094H104.593V23.8295H105.371V22.455H106.717C107.192 22.455 107.601 22.3889 107.944 22.27C108.287 22.1378 108.538 21.966 108.723 21.7281C108.907 21.4902 109 21.2126 109 20.8822C109 20.5518 108.907 20.2743 108.723 20.0364ZM107.839 21.6356C107.588 21.8074 107.205 21.8999 106.704 21.8999H105.384V19.8645H106.704C107.205 19.8645 107.575 19.9571 107.839 20.1289C108.103 20.3007 108.221 20.5518 108.221 20.8822C108.221 21.2126 108.089 21.4505 107.839 21.6356Z" fill="#14428A"></path></svg> 