<svg width="112" height="52" viewBox="0 0 112 52" fill="none" xmlns="http://www.w3.org/2000/svg">
<path d="M16.9544 0.838867C18.3005 4.8612 16.9183 12.196 15.3918 16.4077C9.47831 17.8746 1.74984 23.222 0.055108 28.2025C-0.0891247 28.5693 0.0791468 28.2499 0.223379 28.2499C4.4542 27.6229 10.0312 29.5394 13.9856 32.8519C14.262 35.3836 12.2908 40.1276 17.988 50.9405C18.8775 48.5153 22.1828 41.1923 29.3824 37.4184C33.6493 40.6954 42.7961 46.4213 53.6375 46.0191C70.5368 45.2738 81.5706 38.353 110.718 41.5354V34.2242C83.6139 31.1601 70.056 39.6898 62.3997 40.8729C47.8562 43.097 37.5556 40.3405 29.6949 33.7865C22.7597 37.6905 20.6563 41.3579 18.2284 46.4095C15.2596 40.6363 16.5938 34.4017 17.6635 30.5805C12.6394 28.3209 6.34125 25.8956 3.63689 25.9193C4.12968 23.5295 11.9182 18.9512 17.988 19.0222C19.7429 9.91277 18.9856 5.35807 18.9376 2.76722C22.1227 3.44155 28.0603 8.31567 29.8271 16.6561C37.7359 15.828 43.2768 13.9469 46.1615 9.78264C46.1615 14.0889 43.0485 21.2226 43.2768 20.915C45.5245 17.7563 48.2288 12.0422 47.2793 7.25094C42.1951 13.0715 34.5988 13.4974 31.4377 13.1425C30.0555 10.0192 24.8391 1.71432 16.9544 0.838867Z" fill="#FFD600"/>
<path d="M57.9268 30.8391V25.3261C57.9268 24.2259 57.7105 23.5161 57.3138 23.173C56.8811 22.7944 56.16 22.6406 55.1023 22.6406H46.3642L46.2079 23.8592C46.7608 23.7172 47.506 23.6344 48.5036 23.6344H54.9701C55.4028 23.6344 55.7032 23.7172 55.7874 23.8828C55.9316 24.0248 55.9677 24.3205 55.9677 24.7819V24.8647C55.9677 25.4089 55.9316 25.7047 55.7513 25.8821C55.6191 25.9886 55.3547 26.0478 54.9821 26.0478H48.8282C47.6983 26.0478 46.9892 26.2607 46.5926 26.6748C46.22 27.0415 46.0156 27.7632 46.0156 28.7333V30.3422C46.0156 31.3951 46.232 32.1522 46.5926 32.5072C46.9772 32.8739 47.7464 33.0987 48.8282 33.0987H54.5975C55.0662 33.0987 55.4148 33.0632 55.571 32.9685C55.7513 32.8857 55.9316 32.7201 56.0518 32.4243L56.2682 33.0987H58.1071C57.9749 32.6018 57.9268 31.892 57.9268 30.8391ZM55.9677 30.8864C55.9677 31.3951 55.8715 31.6909 55.7513 31.8565C55.6191 31.9866 55.3547 32.0813 54.9821 32.0813H48.9123C48.4796 32.0813 48.2272 31.9866 48.107 31.821C48.0108 31.6435 47.9748 31.3596 47.9748 30.8864V28.2246C47.9748 27.6922 48.0229 27.3491 48.1911 27.1835C48.2873 27.0888 48.5277 27.0415 48.9123 27.0415H55.9797V30.8864H55.9677Z" fill="#1A1818"/>
<path d="M96.5579 28.4751V25.3282C96.5579 24.2753 96.3896 23.5655 95.9689 23.2105C95.5723 22.832 94.8511 22.6309 93.7934 22.6309H87.2308C86.137 22.6309 85.3918 22.832 85.0192 23.246C84.6226 23.6246 84.4062 24.3463 84.4062 25.3164V30.3324C84.4062 31.3853 84.6226 32.1425 85.0192 32.4974C85.4399 32.8641 86.1731 33.0889 87.2308 33.0889H96.3415L96.5579 31.8231C96.0891 31.9887 95.3199 32.0833 94.2982 32.0833H87.315C86.9183 32.0833 86.6298 31.9887 86.5457 31.8231C86.4135 31.6456 86.3654 31.3617 86.3654 30.8885V28.4751H96.5579ZM86.3654 24.784C86.3654 24.2753 86.4015 23.9204 86.5457 23.8612C86.6779 23.7193 86.9303 23.6364 87.315 23.6364H93.6492C94.1179 23.6364 94.3703 23.7193 94.5026 23.8612C94.5987 23.9795 94.6348 24.1451 94.6348 24.4882V27.4577H86.3654V24.784Z" fill="#1A1818"/>
<path d="M67.6041 22.6309L67.5079 24.228C66.919 24.1451 66.4983 24.0978 66.1978 24.0978C65.2002 23.9795 64.6473 23.9204 64.5992 23.9204H62.9766C62.592 23.9204 62.3396 24.015 62.1953 24.1451C62.0511 24.2753 61.979 24.6065 61.979 25.1152V30.8411C61.979 31.7757 62.0511 32.5329 62.1953 33.0771H59.8516C59.9597 32.4856 60.0559 31.7166 60.0559 30.8411V24.8195C60.0559 23.9677 59.9597 23.246 59.8516 22.6309H61.7747L61.8588 23.6246C62.0631 23.246 62.2434 22.9976 62.3276 22.9148C62.5319 22.7018 62.8804 22.6309 63.3131 22.6309H67.6041Z" fill="#1A1818"/>
<path d="M107.603 31.8222L107.447 33.088H102.519C101.485 33.088 100.764 32.9224 100.379 32.5438C99.8985 32.1534 99.6941 31.3963 99.6941 30.3434V23.6356H98.0234V22.6418H99.6941V20.5597L101.665 20.2402V22.6418H107.05V23.6356H101.665V30.8876C101.665 31.349 101.701 31.6447 101.846 31.8222C101.966 31.9878 102.206 32.0825 102.603 32.0825H105.283C106.269 32.0706 107.086 31.9878 107.603 31.8222Z" fill="#1A1818"/>
<path d="M44.9595 31.8222L44.7552 33.088H39.8754C38.7936 33.088 38.0724 32.9224 37.6758 32.5438C37.2551 32.1534 37.0388 31.3963 37.0388 30.3434V23.6356H35.332V22.6418H37.0388V20.5597L38.9619 20.2402V22.6418H44.3586V23.6356H38.9619V30.8876C38.9619 31.349 38.9979 31.6447 39.1422 31.8222C39.2624 31.9878 39.5628 32.0825 39.9595 32.0825H42.6518C43.6374 32.0706 44.3946 31.9878 44.9595 31.8222Z" fill="#1A1818"/>
<path d="M82.5415 18.8341C82.4814 19.0234 82.4453 19.4256 82.4093 20.0645C82.4093 20.6796 82.3732 21.2948 82.3251 21.8745V33.0897H79.2842L70.1375 20.4312L70.0774 30.6763L70.3058 33.0779H68.623C68.7072 32.8176 68.8033 32.3089 68.8394 31.5163C68.8394 30.6763 68.8755 29.8718 68.8755 29.1029V22.1939C68.8755 20.6323 68.7913 19.4848 68.6591 18.8223H71.664L80.991 31.5991L81.0631 21.2712L80.8588 18.8223H82.5415V18.8341Z" fill="#1A1818"/>
<path d="M33.7556 30.3096C33.7556 31.3625 33.5513 32.0723 33.1186 32.4509C32.6378 32.8649 31.7964 33.0779 30.5464 33.0779H21.3516L21.2194 31.7174C21.4718 31.7647 21.7242 31.7647 21.8564 31.7647C23.0944 31.883 23.8756 31.9185 24.08 31.9185H30.4142C30.7988 31.9185 31.0392 31.8357 31.2435 31.6819C31.3637 31.5044 31.3998 31.2087 31.3998 30.7473V27.979C31.3998 27.5176 31.3637 27.2218 31.2676 27.0799C31.1474 26.9261 30.8709 26.8314 30.4142 26.8314H24.3204C23.0824 26.8314 22.229 26.6658 21.8083 26.3346C21.3035 25.956 21.0391 25.1988 21.0391 24.0986V21.5669C21.0391 20.4667 21.3035 19.7569 21.7121 19.3783C22.1448 19.0234 23.0463 18.8223 24.3204 18.8223H33.2868L33.4431 20.1354C33.1426 20.0999 32.9262 20.0999 32.758 20.0999C31.6882 20.0526 30.9671 20.0053 30.5344 20.0053H24.4045C23.9838 20.0053 23.7795 20.0526 23.6953 20.1354C23.5631 20.2537 23.479 20.5968 23.4309 21.141V23.5071C23.4309 24.0158 23.479 24.3116 23.5631 24.4772C23.6953 24.5955 23.9357 24.6901 24.4045 24.6901H30.5344C31.7844 24.6901 32.6378 24.8558 33.1065 25.2343C33.5392 25.6247 33.7436 26.3346 33.7436 27.4348V30.3096H33.7556Z" fill="#1A1818"/>
</svg>
